<svg width="18" height="20" viewBox="0 0 18 20" fill="none" xmlns="http://www.w3.org/2000/svg">
<path d="M6.04201 17.0029H11.958C11.8398 17.7019 11.4779 18.3365 10.9364 18.7941C10.3949 19.2516 9.70893 19.5027 9.00001 19.5027C8.29109 19.5027 7.60508 19.2516 7.06361 18.7941C6.52215 18.3365 6.16022 17.7019 6.04201 17.0029ZM9.00001 0.00292969C10.9891 0.00292969 12.8968 0.793106 14.3033 2.19963C15.7098 3.60615 16.5 5.51381 16.5 7.50293V11.5029L17.918 14.6629C17.9825 14.8075 18.0098 14.9658 17.9976 15.1236C17.9853 15.2814 17.9338 15.4336 17.8478 15.5664C17.7617 15.6992 17.6439 15.8084 17.5049 15.8842C17.3659 15.9599 17.2103 15.9997 17.052 15.9999H0.952013C0.793545 15.9999 0.6376 15.9602 0.49838 15.8845C0.359159 15.8088 0.241086 15.6995 0.154911 15.5665C0.0687367 15.4335 0.0171986 15.2811 0.00499033 15.1231C-0.00721798 14.9651 0.0202914 14.8066 0.0850131 14.6619L1.50001 11.5019V7.48993L1.50501 7.23993C1.57342 5.29778 2.39301 3.45801 3.79111 2.10822C5.18921 0.758432 7.05666 0.00402086 9.00001 0.00392962V0.00292969Z" fill="#313034"/>
</svg>
