<svg width="46" height="46" viewBox="0 0 46 46" fill="none" xmlns="http://www.w3.org/2000/svg">
<path d="M27.7917 31.625L23 32.5833L18.2083 31.625C18.2083 31.625 7.66666 33.5263 7.66666 44.0833H38.3333C38.3333 33.5637 27.7917 31.625 27.7917 31.625Z" fill="#00897B"/>
<path d="M23 37.375L18.2083 31.625V25.875H27.7917V31.625L23 37.375Z" fill="#FC8F00"/>
<path d="M33.5417 20.1249C33.5417 21.1839 32.684 22.0416 31.625 22.0416C30.5661 22.0416 29.7083 21.1839 29.7083 20.1249C29.7083 19.066 30.5661 18.2083 31.625 18.2083C32.684 18.2083 33.5417 19.066 33.5417 20.1249ZM16.2917 20.1249C16.2917 19.066 15.434 18.2083 14.375 18.2083C13.3161 18.2083 12.4583 19.066 12.4583 20.1249C12.4583 21.1839 13.3161 22.0416 14.375 22.0416C15.434 22.0416 16.2917 21.1839 16.2917 20.1249Z" fill="#FFA726"/>
<path d="M31.625 14.3749C31.625 7.05612 14.375 9.60912 14.375 14.3749V21.0832C14.375 25.849 18.2342 29.7082 23 29.7082C27.7658 29.7082 31.625 25.849 31.625 21.0832V14.3749Z" fill="#FFAA45"/>
<path d="M23 5.75C17.1791 5.75 13.4167 10.4707 13.4167 16.2917V18.4815L15.3333 20.125V15.3333L26.8333 11.5L30.6667 15.3333V20.125L32.5833 18.4556V16.2917C32.5833 12.4363 31.5876 8.60967 26.8333 7.66667L25.875 5.75H23Z" fill="#424242"/>
<path d="M25.875 20.1251C25.875 19.597 26.3053 19.1667 26.8333 19.1667C27.3614 19.1667 27.7917 19.597 27.7917 20.1251C27.7917 20.6531 27.3614 21.0834 26.8333 21.0834C26.3053 21.0834 25.875 20.6531 25.875 20.1251ZM18.2083 20.1251C18.2083 20.6531 18.6386 21.0834 19.1667 21.0834C19.6947 21.0834 20.125 20.6531 20.125 20.1251C20.125 19.597 19.6947 19.1667 19.1667 19.1667C18.6386 19.1667 18.2083 19.597 18.2083 20.1251Z" fill="#784719"/>
<path d="M28.75 31.8683V40.2499H17.25V31.8645C16.3444 32.1338 14.9069 32.6542 13.4167 33.5828V44.0833H32.5833V33.5981C31.0931 32.6657 29.6556 32.1376 28.75 31.8683Z" fill="#F9A825"/>
<path d="M17.25 40.25H13.4167V37.375H17.25V40.25ZM32.5833 37.375H28.75V40.25H32.5833V37.375Z" fill="#263238"/>
<path d="M32.5833 14.3751V13.4167C32.5833 8.65096 28.7241 4.79175 23.9583 4.79175H22.0417C17.2759 4.79175 13.4167 8.65096 13.4167 13.4167V14.3751H11.5V17.2501H34.5V14.3751H32.5833Z" fill="#FF5722"/>
<path d="M20.125 3.83325H25.875V14.3749H20.125V3.83325Z" fill="#D84315"/>
<path d="M31.6135 20.5744C31.6135 20.5744 30.8152 22.3023 30.015 22.9262C29.5023 23.3594 27.9613 24.3685 26.9896 23.9363C25.7916 23.4073 24.1356 22.9751 22.9943 22.9751L22.9339 22.9741C21.7925 22.9741 20.1959 23.4054 18.999 23.9353C18.0263 24.3675 16.4862 23.3594 15.9735 22.9252C15.1733 22.3014 14.375 20.5735 14.375 20.5735C14.375 20.5735 13.6476 29.9623 22.9933 31.0126V31.0136C32.339 29.9632 31.6135 20.5744 31.6135 20.5744ZM25.8472 27.7821C24.7068 27.7821 24.7058 26.3407 22.9952 26.3398V26.3388C21.2827 26.3388 21.2827 27.7811 20.1413 27.7811C18.4288 27.7811 19.5701 25.8587 19.5701 25.3776C19.5701 24.8975 22.9943 24.4164 22.9943 24.4164V24.4174C22.9943 24.4174 26.4184 24.8975 26.4184 25.3786C26.4184 25.8587 27.5598 27.7821 25.8472 27.7821Z" fill="#424242"/>
</svg>
