<svg width="47" height="46" viewBox="0 0 47 46" fill="none" xmlns="http://www.w3.org/2000/svg">
<path d="M31.1667 13.8958C31.1667 14.6624 30.4958 15.3333 29.7292 15.3333C28.9625 15.3333 28.2917 14.6624 28.2917 13.8958C28.2917 13.1291 28.9625 12.4583 29.7292 12.4583C30.4958 12.4583 31.1667 13.1291 31.1667 13.8958ZM18.7083 13.8958C18.7083 14.6624 18.0375 15.3333 17.2708 15.3333C16.5042 15.3333 15.8333 14.6624 15.8333 13.8958C15.8333 13.1291 16.5042 12.4583 17.2708 12.4583C18.0375 12.4583 18.7083 13.1291 18.7083 13.8958Z" fill="#FFA726"/>
<path d="M32.125 43.1249V34.4999H36.6292L36.9167 31.6249C35.9583 24.9166 30.4 21.0833 23.5 21.0833C16.6 21.0833 11.0417 24.9166 10.0833 31.6249L11.0417 34.4999H14.875V43.1249H32.125Z" fill="#4CAF50"/>
<path d="M23.5 24.9167C19.6667 24.9167 19.6667 21.0833 19.6667 21.0833V17.25H27.3333V21.0833C27.3333 21.0833 27.3333 24.9167 23.5 24.9167Z" fill="#FF9800"/>
<path d="M23.5 26.8332C27.1417 26.8332 28.7708 24.2457 29.1542 22.0416C28.5792 21.8499 27.9083 21.6582 27.3333 21.4666C27.2375 22.4249 26.5667 24.9166 23.5 24.9166C20.4333 24.9166 19.8583 22.5207 19.6667 21.4666C18.9958 21.6582 18.4208 21.7541 17.8458 22.0416C18.2292 24.2457 19.8583 26.8332 23.5 26.8332Z" fill="#1B5E20"/>
<path d="M13.9167 38.3333L15.8333 32.5833L10.0833 31.625L8.16666 37.375V39.2916L13.9167 43.125V38.3333ZM30.2083 10.2541C30.2083 4.59998 16.7917 6.61248 16.7917 10.2541V14.4708C16.7917 18.1125 19.7625 21.0833 23.5 21.0833C27.2375 21.0833 30.2083 18.1125 30.2083 14.4708V10.2541ZM38.8333 37.375V39.2916L33.0833 43.125V38.3333L31.1667 32.5833L36.9167 31.625L38.8333 37.375Z" fill="#FFB74D"/>
<path d="M22.5417 39.2917H24.4583V43.1251H22.5417V39.2917Z" fill="#795548"/>
<path d="M23.5 40.3459L13.5333 36.321L14.3 34.5959L23.5 38.2376L32.7 34.5959L33.4667 36.321L23.5 40.3459Z" fill="#795548"/>
<path d="M18.7083 43.1249C16.4083 42.1666 14.875 40.4416 14.875 38.3333C14.875 34.8833 18.9958 32.5833 23.5 32.5833C28.0042 32.5833 32.125 34.8833 32.125 38.3333C32.125 40.4416 30.5917 42.1666 28.2917 43.1249H33.0833C34.3292 41.7833 35 40.1541 35 38.3333C35 33.3499 29.5375 29.7083 23.5 29.7083C17.4625 29.7083 12 33.3499 12 38.3333C12 40.1541 12.7667 41.7833 13.9167 43.1249H18.7083Z" fill="#5D4037"/>
<path d="M26.375 39.2917C26.375 38.2375 25.1292 37.375 23.5 37.375C21.8708 37.375 20.625 38.2375 20.625 39.2917C20.625 40.3458 21.8708 41.2083 23.5 41.2083C25.1292 41.2083 26.375 40.3458 26.375 39.2917Z" fill="#4E342E"/>
<path d="M23.5 2.875C18.8042 2.875 15.8333 6.99583 15.8333 10.7333V12.4583L17.75 14.375V10.5417L26.5667 7.66667L29.25 10.5417V14.375L31.1667 12.4583V11.6917C31.1667 8.625 30.4 5.175 26.5667 4.40833L25.8 2.875H23.5Z" fill="#424242"/>
<path d="M25.4167 13.4166C25.4167 13.9916 25.8 14.3749 26.375 14.3749C26.95 14.3749 27.3333 13.9916 27.3333 13.4166C27.3333 12.8416 26.95 12.4583 26.375 12.4583C25.8 12.4583 25.4167 12.8416 25.4167 13.4166ZM19.6667 13.4166C19.6667 13.9916 20.05 14.3749 20.625 14.3749C21.2 14.3749 21.5833 13.9916 21.5833 13.4166C21.5833 12.8416 21.2 12.4583 20.625 12.4583C20.05 12.4583 19.6667 12.8416 19.6667 13.4166Z" fill="#784719"/>
</svg>
