<svg width="16" height="11" viewBox="0 0 16 11" fill="none" xmlns="http://www.w3.org/2000/svg">
<path d="M7.99984 1.83333C9.22566 1.82926 10.4278 2.17119 11.4679 2.81982C12.5081 3.46845 13.3441 4.39744 13.8798 5.5C12.7798 7.74667 10.5332 9.16667 7.99984 9.16667C5.4665 9.16667 3.21984 7.74667 2.11984 5.5C2.65558 4.39744 3.49159 3.46845 4.53176 2.81982C5.57192 2.17119 6.77401 1.82926 7.99984 1.83333M7.99984 0.5C4.6665 0.5 1.81984 2.57333 0.666504 5.5C1.81984 8.42667 4.6665 10.5 7.99984 10.5C11.3332 10.5 14.1798 8.42667 15.3332 5.5C14.1798 2.57333 11.3332 0.5 7.99984 0.5ZM7.99984 3.83333C8.44186 3.83333 8.86579 4.00893 9.17835 4.32149C9.49091 4.63405 9.6665 5.05797 9.6665 5.5C9.6665 5.94203 9.49091 6.36595 9.17835 6.67851C8.86579 6.99107 8.44186 7.16667 7.99984 7.16667C7.55781 7.16667 7.13389 6.99107 6.82133 6.67851C6.50877 6.36595 6.33317 5.94203 6.33317 5.5C6.33317 5.05797 6.50877 4.63405 6.82133 4.32149C7.13389 4.00893 7.55781 3.83333 7.99984 3.83333M7.99984 2.5C6.3465 2.5 4.99984 3.84667 4.99984 5.5C4.99984 7.15333 6.3465 8.5 7.99984 8.5C9.65317 8.5 10.9998 7.15333 10.9998 5.5C10.9998 3.84667 9.65317 2.5 7.99984 2.5Z" fill="#929094"/>
</svg>
