<svg width="47" height="46" viewBox="0 0 47 46" fill="none" xmlns="http://www.w3.org/2000/svg">
<path d="M42.5469 20.125H40.0312C38.4434 20.125 37.1562 21.4122 37.1562 23C37.1562 24.5878 38.4434 25.875 40.0312 25.875C41.6191 25.875 42.9062 24.5878 42.9062 23V20.4844C42.9062 20.2859 42.7453 20.125 42.5469 20.125Z" fill="#5FAA46"/>
<path d="M36.4375 31.6249C36.0406 31.6249 35.7188 31.3031 35.7188 30.9062V28.38C35.7188 27.0361 36.2421 25.7726 37.1923 24.8223L40.9604 21.0542C41.2412 20.7736 41.6961 20.7736 41.9769 21.0542C42.2576 21.3349 42.2576 21.7899 41.9769 22.0707L38.2088 25.8388C37.53 26.5176 37.1562 27.42 37.1562 28.38V30.9062C37.1562 31.3031 36.8344 31.6249 36.4375 31.6249Z" fill="#4B8C41"/>
<path d="M30.3281 20.125H32.8438C34.4316 20.125 35.7188 21.4122 35.7188 23C35.7188 24.5878 34.4316 25.875 32.8438 25.875C31.2559 25.875 29.9688 24.5878 29.9688 23V20.4844C29.9688 20.2859 30.1297 20.125 30.3281 20.125Z" fill="#5FAA46"/>
<path d="M36.4375 31.6251C36.0406 31.6251 35.7188 31.3033 35.7188 30.9063V28.3801C35.7188 27.4201 35.345 26.5177 34.6661 25.8391L30.898 22.0709C30.6173 21.7902 30.6173 21.3352 30.898 21.0544C31.1788 20.7738 31.6337 20.7738 31.9145 21.0544L35.6826 24.8226C36.6329 25.7728 37.1563 27.0362 37.1563 28.3801V30.9063C37.1563 31.3033 36.8344 31.6251 36.4375 31.6251Z" fill="#4B8C41"/>
<path d="M24.9375 28.75H9.125C6.74324 28.75 4.8125 30.6807 4.8125 33.0625V44.5625H29.25V33.0625C29.25 30.6807 27.3193 28.75 24.9375 28.75Z" fill="#463C4B"/>
<path d="M22.7812 28.75H20.625C23.0068 28.75 24.9375 30.6807 24.9375 33.0625V37.375H27.0938V33.0625C27.0938 30.6807 25.163 28.75 22.7812 28.75Z" fill="#64AFE1"/>
<path d="M13.4375 28.75H11.2812C13.663 28.75 15.5938 30.6807 15.5938 33.0625V37.375H17.75V33.0625C17.75 30.6807 15.8193 28.75 13.4375 28.75Z" fill="#64AFE1"/>
<path d="M9.125 28.75C6.74324 28.75 4.8125 30.6807 4.8125 33.0625V44.5625H13.4375V33.0625C13.4375 30.6807 11.5068 28.75 9.125 28.75Z" fill="#555A6E"/>
<path d="M29.25 12.9375H9.125V28.75H19.1875V25.875H24.9375C27.3193 25.875 29.25 23.9443 29.25 21.5625V12.9375Z" fill="#FAB991"/>
<path d="M19.1875 25.875H12C10.4122 25.875 9.125 24.5878 9.125 23V28.75H19.1875V25.875Z" fill="#F0915A"/>
<path d="M7.6875 12.9375V21.5625C7.6875 23.1503 8.97469 24.4375 10.5625 24.4375H13.4375C15.0253 24.4375 16.3125 23.1503 16.3125 21.5625V17.9688C17.9003 17.9688 19.1875 16.6816 19.1875 15.0938V12.9375H7.6875Z" fill="#463C4B"/>
<path d="M16.3125 14.375V21.5625C14.3278 21.5625 12.7188 19.9535 12.7188 17.9688C12.7188 15.984 14.3278 14.375 16.3125 14.375Z" fill="#F0915A"/>
<path d="M29.25 11.5H7.6875V8.625C7.6875 4.65543 10.9054 1.4375 14.875 1.4375H22.0625C26.0321 1.4375 29.25 4.65543 29.25 8.625V11.5Z" fill="#F28A39"/>
<path d="M18.4688 1.4375C17.2779 1.4375 16.3125 2.40287 16.3125 3.59375V11.5H29.25V8.625C29.25 4.65543 26.0321 1.4375 22.0625 1.4375H18.4688Z" fill="#D26E28"/>
<path d="M27.0938 37.375H15.5938C15.5938 38.5659 14.6284 39.5312 13.4375 39.5312V44.5625H29.25V39.5312C28.0591 39.5312 27.0938 38.5659 27.0938 37.375Z" fill="#4182C3"/>
<path d="M25.6562 20.125C24.8623 20.125 24.2188 19.4814 24.2188 18.6875V15.8125C25.8066 15.8125 27.0938 17.0997 27.0938 18.6875C27.0938 19.4814 26.4502 20.125 25.6562 20.125Z" fill="#F0915A"/>
<path d="M22.4219 15.4531C23.0173 15.4531 23.5 14.9704 23.5 14.375C23.5 13.7796 23.0173 13.2969 22.4219 13.2969C21.8264 13.2969 21.3438 13.7796 21.3438 14.375C21.3438 14.9704 21.8264 15.4531 22.4219 15.4531Z" fill="#463C4B"/>
<path d="M26.0156 15.4531C26.6111 15.4531 27.0938 14.9704 27.0938 14.375C27.0938 13.7796 26.6111 13.2969 26.0156 13.2969C25.4202 13.2969 24.9375 13.7796 24.9375 14.375C24.9375 14.9704 25.4202 15.4531 26.0156 15.4531Z" fill="#463C4B"/>
<path d="M26.375 21.5625H23.5C23.5 22.3564 24.1436 23 24.9375 23C25.7314 23 26.375 22.3564 26.375 21.5625Z" fill="#463C4B"/>
<path d="M33.5625 12.9375H3.375C2.58105 12.9375 1.9375 12.2939 1.9375 11.5C1.9375 10.7061 2.58105 10.0625 3.375 10.0625H33.5625C34.3564 10.0625 35 10.7061 35 11.5C35 12.2939 34.3564 12.9375 33.5625 12.9375Z" fill="#D26E28"/>
<path d="M17.75 12.9375H3.375C2.58105 12.9375 1.9375 12.2939 1.9375 11.5C1.9375 10.7061 2.58105 10.0625 3.375 10.0625H17.75C18.5439 10.0625 19.1875 10.7061 19.1875 11.5C19.1875 12.2939 18.5439 12.9375 17.75 12.9375Z" fill="#F28A39"/>
<path d="M36.7969 35.2188H33.5625C31.9747 35.2188 30.6875 36.5059 30.6875 38.0938V43.125H33.5625V39.5312C33.5625 39.1343 33.8843 38.8125 34.2812 38.8125H36.7969C37.7893 38.8125 38.5938 38.008 38.5938 37.0156C38.5938 36.0232 37.7893 35.2188 36.7969 35.2188Z" fill="#D7E6F0"/>
<path d="M41.4688 37.375H31.4062C31.0093 37.375 30.6875 37.0532 30.6875 36.6562V30.1875H42.1875V36.6562C42.1875 37.0532 41.8657 37.375 41.4688 37.375Z" fill="#F06423"/>
<path d="M42.9062 27.3125H29.9688C29.5718 27.3125 29.25 27.6343 29.25 28.0312V29.4688C29.25 29.8657 29.5718 30.1875 29.9688 30.1875H42.9062C43.3032 30.1875 43.625 29.8657 43.625 29.4688V28.0312C43.625 27.6343 43.3032 27.3125 42.9062 27.3125Z" fill="#FAA019"/>
<path d="M35.7188 37.375H31.4062C31.0093 37.375 30.6875 37.0532 30.6875 36.6562V31.625H35.7188C36.1157 31.625 36.4375 31.9468 36.4375 32.3438V36.6562C36.4375 37.0532 36.1157 37.375 35.7188 37.375Z" fill="#FAA019"/>
<path d="M36.4375 43.125H33.5625V44.5625H36.4375V43.125Z" fill="#F0915A"/>
<path d="M33.5625 43.125H30.6875V44.5625H33.5625V43.125Z" fill="#FAB991"/>
<path d="M29.25 8.625H7.6875V10.0625H29.25V8.625Z" fill="#E1322D"/>
<path d="M16.3125 8.625H7.6875V10.0625H16.3125V8.625Z" fill="#F04B37"/>
<path d="M44.6414 34.921C44.0801 34.3597 43.1699 34.3597 42.6085 34.921L39.1381 38.3914C38.8666 38.6629 38.5055 38.8125 38.1216 38.8125H37.875H34.2812C33.8843 38.8125 33.5625 39.1343 33.5625 39.5312V43.125H36.4375C36.4375 42.331 37.0811 41.6875 37.875 41.6875H38.1216C39.2735 41.6875 40.3565 41.2389 41.171 40.4243L44.6414 36.9539C45.2029 36.3925 45.2029 35.4824 44.6414 34.921Z" fill="#A5C3DC"/>
</svg>
