<svg width="47" height="46" viewBox="0 0 47 46" fill="none" xmlns="http://www.w3.org/2000/svg">
<path d="M36.4375 31.6251C35.6436 31.6251 35 30.9816 35 30.1876V26.0761C35 25.2262 34.7991 24.3751 34.419 23.6149L33.7142 22.2054C33.3592 21.4954 33.647 20.6318 34.3572 20.2769C35.0672 19.9218 35.9307 20.2096 36.2858 20.9197L36.9905 22.3292C37.5691 23.4864 37.875 24.7821 37.875 26.076V30.1876C37.875 30.9816 37.2314 31.6251 36.4375 31.6251Z" fill="#643773"/>
<path d="M35 31.625C34.2061 31.625 33.5625 30.9815 33.5625 30.1875C33.5625 28.7175 32.99 27.3355 31.9506 26.2961L31.1085 25.4539C30.5472 24.8925 30.5472 23.9824 31.1085 23.421C31.6699 22.8597 32.5801 22.8596 33.1414 23.4211L33.9835 24.2632C35.566 25.8456 36.4375 27.9495 36.4375 30.1875C36.4375 30.9815 35.7939 31.625 35 31.625Z" fill="#643773"/>
<path d="M36.4375 31.625C35.6436 31.625 35 30.9815 35 30.1875C35 28.7175 34.4275 27.3355 33.3881 26.2961L32.546 25.4539C31.9847 24.8925 31.9847 23.9824 32.546 23.421C33.1074 22.8597 34.0176 22.8596 34.5789 23.4211L35.421 24.2632C37.0035 25.8456 37.875 27.9495 37.875 30.1875C37.875 30.9815 37.2314 31.625 36.4375 31.625Z" fill="#9B5FAA"/>
<path d="M40.75 31.625C39.9561 31.625 39.3125 30.9814 39.3125 30.1875C39.3125 27.9494 40.184 25.8455 41.7665 24.2631L42.6085 23.4211C43.1699 22.8597 44.08 22.8596 44.6414 23.421C45.2028 23.9824 45.2028 24.8925 44.6414 25.4539L43.7993 26.2961C42.76 27.3355 42.1875 28.7174 42.1875 30.1875C42.1875 30.9814 41.5439 31.625 40.75 31.625Z" fill="#643773"/>
<path d="M39.3125 31.6251C38.5186 31.6251 37.875 30.9815 37.875 30.1876V26.076C37.875 24.7821 38.1808 23.4865 38.7595 22.3292L39.4642 20.9197C39.8192 20.2096 40.6828 19.9217 41.3928 20.2769C42.103 20.6319 42.3907 21.4954 42.0358 22.2055L41.331 23.6149C40.951 24.3751 40.75 25.2262 40.75 26.0761V30.1876C40.75 30.9815 40.1064 31.6251 39.3125 31.6251Z" fill="#643773"/>
<path d="M19.1875 14.375H29.25C30.0439 14.375 30.6875 13.7314 30.6875 12.9375V6.46875H19.1875V14.375Z" fill="#463C4B"/>
<path d="M19.1875 1.4375C13.6301 1.4375 9.125 5.94263 9.125 11.5V28.75H19.1875V25.875H24.9375C27.3193 25.875 29.25 23.9443 29.25 21.5625V11.5C29.25 5.94263 24.7449 1.4375 19.1875 1.4375Z" fill="#FAB991"/>
<path d="M19.1875 25.875H12C10.4122 25.875 9.125 27.1622 9.125 28.75H19.1875V25.875Z" fill="#F0915A"/>
<path d="M26.375 21.5625H23.5C23.5 22.3564 24.1436 23 24.9375 23C25.7314 23 26.375 22.3564 26.375 21.5625Z" fill="#463C4B"/>
<path d="M25.6562 20.125C24.8623 20.125 24.2188 19.4814 24.2188 18.6875V15.8125C25.8066 15.8125 27.0938 17.0997 27.0938 18.6875C27.0938 19.4814 26.4502 20.125 25.6562 20.125Z" fill="#F0915A"/>
<path d="M22.4219 15.4531C23.0173 15.4531 23.5 14.9704 23.5 14.375C23.5 13.7796 23.0173 13.2969 22.4219 13.2969C21.8264 13.2969 21.3438 13.7796 21.3438 14.375C21.3438 14.9704 21.8264 15.4531 22.4219 15.4531Z" fill="#463C4B"/>
<path d="M26.0156 15.4531C26.6111 15.4531 27.0938 14.9704 27.0938 14.375C27.0938 13.7796 26.6111 13.2969 26.0156 13.2969C25.4202 13.2969 24.9375 13.7796 24.9375 14.375C24.9375 14.9704 25.4202 15.4531 26.0156 15.4531Z" fill="#463C4B"/>
<path d="M24.9375 28.75H9.125C6.74324 28.75 4.8125 30.6807 4.8125 33.0625V44.5625H29.25V33.0625C29.25 30.6807 27.3193 28.75 24.9375 28.75Z" fill="#463C4B"/>
<path d="M9.125 28.75C6.74324 28.75 4.8125 30.6807 4.8125 33.0625V41.6875H13.4375V33.0625C13.4375 30.6807 11.5068 28.75 9.125 28.75Z" fill="#555A6E"/>
<path d="M12 28.75C14.3818 28.75 16.3125 30.6807 16.3125 33.0625C16.3125 34.6503 17.5997 35.9375 19.1875 35.9375H23.5C25.0878 35.9375 26.375 34.6503 26.375 33.0625C26.375 30.6807 24.4443 28.75 22.0625 28.75H12Z" fill="#A5C3DC"/>
<path d="M14.875 28.75C17.2568 28.75 19.1875 30.6807 19.1875 33.0625V33.7812C19.1875 34.9721 20.1529 35.9375 21.3438 35.9375C22.5346 35.9375 23.5 34.9721 23.5 33.7812V33.0625C23.5 30.6807 21.5693 28.75 19.1875 28.75H14.875Z" fill="#F0915A"/>
<path d="M25.6562 1.4375H17.75C12.1926 1.4375 7.6875 5.94271 7.6875 11.5V17.6356C7.20306 17.3552 6.62977 17.2112 6.01955 17.2591C4.6108 17.3694 3.47634 18.5166 3.38165 19.9264C3.26898 21.6041 4.59651 23 6.25 23C6.77388 23 7.26451 22.8592 7.6875 22.6144V23C7.6875 23.7939 8.33105 24.4375 9.125 24.4375H13.4375C15.0253 24.4375 16.3125 23.1503 16.3125 21.5625V14.375C17.9003 14.375 19.1875 13.0878 19.1875 11.5H25.6562C28.4349 11.5 30.6875 9.24744 30.6875 6.46875C30.6875 3.69006 28.4349 1.4375 25.6562 1.4375Z" fill="#463C4B"/>
<path d="M16.3125 14.375V21.5625C14.3278 21.5625 12.7188 19.9535 12.7188 17.9688C12.7188 15.984 14.3278 14.375 16.3125 14.375Z" fill="#F0915A"/>
<path d="M13.4375 41.6875H4.8125V44.5625H13.4375V41.6875Z" fill="#FAB991"/>
<path d="M13.4375 40.25H4.8125V41.6875H13.4375V40.25Z" fill="#D7E6F0"/>
<path d="M39.3125 31.625C38.5186 31.625 37.875 30.9814 37.875 30.1875C37.875 27.9494 38.7465 25.8455 40.329 24.2631L41.171 23.4211C41.7324 22.8597 42.6425 22.8596 43.2039 23.421C43.7653 23.9824 43.7653 24.8925 43.2039 25.4539L42.3618 26.2961C41.3225 27.3355 40.75 28.7174 40.75 30.1875C40.75 30.9814 40.1064 31.625 39.3125 31.625Z" fill="#804B8F"/>
<path d="M33.5625 30.1875V31.625C33.5625 33.5026 34.7625 35.1001 36.4375 35.6921V44.5625H39.3125V35.6921C40.9875 35.1001 42.1875 33.5027 42.1875 31.625V30.1875H33.5625Z" fill="#23AAE6"/>
<path d="M35.7188 33.7812C34.5279 33.7812 33.5625 32.8159 33.5625 31.625V30.1875H37.875V31.625C37.875 32.8159 36.9096 33.7812 35.7188 33.7812Z" fill="#5AD7FF"/>
</svg>
