<svg width="16" height="17" viewBox="0 0 16 17" fill="none" xmlns="http://www.w3.org/2000/svg">
<path d="M7.99984 4.83333C9.22566 4.82926 10.4278 5.17119 11.4679 5.81982C12.5081 6.46845 13.3441 7.39744 13.8798 8.5C12.7798 10.7467 10.5332 12.1667 7.99984 12.1667C5.4665 12.1667 3.21984 10.7467 2.11984 8.5C2.65558 7.39744 3.49159 6.46845 4.53176 5.81982C5.57192 5.17119 6.77401 4.82926 7.99984 4.83333ZM7.99984 3.5C4.6665 3.5 1.81984 5.57333 0.666504 8.5C1.81984 11.4267 4.6665 13.5 7.99984 13.5C11.3332 13.5 14.1798 11.4267 15.3332 8.5C14.1798 5.57333 11.3332 3.5 7.99984 3.5ZM7.99984 6.83333C8.44186 6.83333 8.86579 7.00893 9.17835 7.32149C9.49091 7.63405 9.6665 8.05797 9.6665 8.5C9.6665 8.94203 9.49091 9.36595 9.17835 9.67851C8.86579 9.99107 8.44186 10.1667 7.99984 10.1667C7.55781 10.1667 7.13389 9.99107 6.82133 9.67851C6.50877 9.36595 6.33317 8.94203 6.33317 8.5C6.33317 8.05797 6.50877 7.63405 6.82133 7.32149C7.13389 7.00893 7.55781 6.83333 7.99984 6.83333ZM7.99984 5.5C6.3465 5.5 4.99984 6.84667 4.99984 8.5C4.99984 10.1533 6.3465 11.5 7.99984 11.5C9.65317 11.5 10.9998 10.1533 10.9998 8.5C10.9998 6.84667 9.65317 5.5 7.99984 5.5Z" fill="#929094"/>
</svg>
