<svg width="47" height="46" viewBox="0 0 47 46" fill="none" xmlns="http://www.w3.org/2000/svg">
<path d="M27.5167 16.0966L27.9421 34.8835H13.167L13.5924 15.4116H26.8275C27.2061 15.4116 27.5167 15.718 27.5167 16.0966Z" fill="#78D7A6"/>
<path d="M12.3491 23.933V34.8835H12.7533C13.285 33.0245 13.5701 31.076 14.489 29.3828C14.6762 29.0339 15.8125 28.7804 16.1827 28.6102C16.5017 28.4656 15.9397 28.3617 15.8036 27.9023C15.6717 27.4683 15.3356 27.0344 15.1144 26.6388C14.8719 26.2048 14.6294 25.7709 14.3869 25.3369C14.1955 25.0008 14.004 24.6647 13.7403 24.384C13.4722 24.1074 13.1149 23.8947 12.732 23.882C12.6001 23.8777 12.4725 23.8947 12.3491 23.933Z" fill="#5DB19C"/>
<path d="M27.9421 23.933V34.8835H27.5379C27.0062 33.0245 26.7211 31.076 25.8022 29.3828C25.615 29.0339 24.4787 28.7804 24.1085 28.6102C23.7895 28.4656 24.3515 28.3617 24.4876 27.9023C24.6195 27.4683 24.9556 27.0344 25.1768 26.6388C25.4193 26.2048 25.6618 25.7709 25.9043 25.3369C26.0957 25.0008 26.2872 24.6647 26.551 24.384C26.819 24.1074 27.1763 23.8947 27.5592 23.882C27.6911 23.8777 27.8187 23.8947 27.9421 23.933Z" fill="#5DB19C"/>
<path d="M27.1639 43.4446V35.242L20.4479 33.9941L21.7976 43.4446H27.1639Z" fill="#95BCFF"/>
<path d="M14.0174 43.4446V35.242L20.7334 33.9941L19.3837 43.4446H14.0174Z" fill="#95BCFF"/>
<path d="M23.3836 15.4126L19.5238 19.6334L18.86 19.4275L22.482 15.4252L23.3836 15.4126Z" fill="#5DB19C"/>
<path d="M17.8048 15.4126L20.2344 17.9427L20.6533 17.4795L18.7101 15.4126H17.8048Z" fill="#5DB19C"/>
<path d="M22.482 15.4141L20.6533 17.5052L18.7101 15.4126L22.482 15.4141Z" fill="#F9C4C0"/>
<path d="M41.2931 38.9692H38.3235V43.4447H41.2931V38.9692Z" fill="#EDF5FC"/>
<path d="M38.3236 34.4168H29.0846V34.4168C29.0846 32.9716 30.0439 31.7452 31.3376 31.5367L36.1122 30.4925C37.2571 30.2421 38.3236 31.2107 38.3236 32.5009V34.4168Z" fill="#333077"/>
<path d="M35.1571 38.5654H32.4049C30.6547 38.5654 29.2385 37.1458 29.2385 35.3989C29.2385 33.6487 30.6547 32.2324 32.4049 32.2324H35.1571C36.9073 32.2324 38.3235 33.6487 38.3235 35.3989C38.3235 36.274 37.9703 37.0648 37.3967 37.6384C36.823 38.2121 36.0322 38.5654 35.1571 38.5654Z" fill="#F9C4C0"/>
<path d="M30.4384 33.0542L30.3991 33.3125L29.8 37.2881H27.6273V33.7445L30.4384 33.0542Z" fill="#F9C4C0"/>
<path d="M30.4041 33.4436L29.805 37.4193L28.7087 37.2882C28.5407 36.9013 28.4476 36.475 28.4476 36.0266C28.4476 34.8746 29.4803 33.8675 30.4041 33.4436Z" fill="#FD9997"/>
<path d="M34.881 39.2651H32.1289C30.3787 39.2651 28.9624 37.8455 28.9624 36.0986C28.9624 34.3485 30.3787 32.9321 32.1289 32.9321H34.881C36.6312 32.9321 38.0475 34.3485 38.0475 36.0986C38.0475 36.9737 37.6942 37.7645 37.1206 38.3381C36.5469 38.9118 35.7561 39.2651 34.881 39.2651Z" fill="#F9C4C0"/>
<path d="M41.7495 38.2614L37.5233 38.8319L36.5717 31.7826L37.2208 31.695C39.1964 31.4283 41.0141 32.8136 41.2807 34.7892L41.7495 38.2614Z" fill="#333077"/>
<path d="M39.0424 38.0212H39.0424C37.56 38.1087 36.2874 36.9779 36.1998 35.4955L36.0504 32.9631L38.7345 32.8047L39.0424 38.0212Z" fill="#333077"/>
<path d="M42.4174 38.1536H3.09161V41.1364H42.4174C42.8293 41.1364 43.2018 40.9694 43.4716 40.6996C43.7414 40.4289 43.9084 40.0565 43.9084 39.6445C43.9084 38.8208 43.2412 38.1536 42.4174 38.1536Z" fill="#387094"/>
<path d="M43.1766 38.3623C43.2726 38.5591 43.3264 38.7799 43.3264 39.0142C43.3264 39.426 43.1594 39.7985 42.8896 40.0693C42.6198 40.3391 42.2473 40.5062 41.8354 40.5062H3.09161V41.1368H42.4172C42.8291 41.1368 43.2016 40.9698 43.4714 40.7001C43.7411 40.4293 43.9082 40.0567 43.9082 39.6449C43.9082 39.0986 43.6154 38.6214 43.1766 38.3623Z" fill="#315A79"/>
<path d="M40.3697 38.1534H29.592C29.592 37.8049 29.7331 37.49 29.9616 37.2624C30.1892 37.0339 30.5041 36.8928 30.8526 36.8928H39.1082C39.8052 36.8928 40.3697 37.4573 40.3697 38.1534Z" fill="#95BCFF"/>
<path d="M3.09161 38.1535H15.8014L13.4678 29.6119C11.387 28.9242 9.46801 29.8306 8.23867 31.0133L3.09161 31.9425V38.1535Z" fill="#79AFFE"/>
<path d="M27.9423 37.0643C27.9423 37.6657 27.4548 38.1533 26.8534 38.1533H11.7917C11.1856 38.1533 11.1856 29.4041 11.7917 29.4041L21.5403 29.4041C25.0761 29.4041 27.9423 32.2703 27.9423 35.8061V37.0643Z" fill="#FDF3E3"/>
<path d="M37.0309 34.0446L30.1727 33.1188L31.0429 31.9658H37.0309V34.0446Z" fill="#333077"/>
<path d="M35.9762 34.9135C36.4847 34.9135 36.8969 34.5014 36.8969 33.9929C36.8969 33.4845 36.4847 33.0723 35.9762 33.0723C35.4678 33.0723 35.0556 33.4845 35.0556 33.9929C35.0556 34.5014 35.4678 34.9135 35.9762 34.9135Z" fill="#333077"/>
<path d="M34.5333 33.7276L32.683 33.4709C32.7539 32.9599 33.2263 32.6026 33.7373 32.6735C34.2482 32.7444 34.6042 33.2166 34.5333 33.7276Z" fill="#F9C4C0"/>
<path d="M24.9598 38.1537H11.3371V35.1711H27.9423V35.1711C27.9423 36.8183 26.607 38.1537 24.9598 38.1537Z" fill="#FDF3E3"/>
<path d="M11.3369 35.1711V38.1541L9.6512 38.1293C9.09053 38.1211 8.63192 37.6802 8.6016 37.1203L8.56592 36.4615C8.53495 35.8897 8.96085 35.3955 9.53088 35.3417L11.3369 35.1711Z" fill="#F9C4C0"/>
<path d="M27.9422 35.0752H11.3369V35.2675H27.9422V35.0752Z" fill="#E9D8BE"/>
<path d="M22.482 12.6741V15.4142L18.7101 15.4127L18.7816 12.6741H22.482Z" fill="#F9C4C0"/>
<path d="M22.482 13.0488V14.9727C21.1718 15.0343 19.9446 14.7208 18.7816 14.0938V13.0488H22.482Z" fill="#FD9997"/>
<path d="M24.2424 11.4476C24.7413 11.4476 25.1458 10.976 25.1458 10.3941C25.1458 9.81226 24.7413 9.34058 24.2424 9.34058C23.7435 9.34058 23.339 9.81226 23.339 10.3941C23.339 10.976 23.7435 11.4476 24.2424 11.4476Z" fill="#F9C4C0"/>
<path d="M24.6036 10.8691C24.5825 10.8691 24.5618 10.8605 24.5466 10.8436C24.519 10.8121 24.5217 10.764 24.5531 10.7361C24.6615 10.6402 24.7212 10.5188 24.7212 10.3941C24.7212 10.2691 24.6615 10.1477 24.5534 10.0521C24.522 10.0242 24.519 9.97638 24.5466 9.94491C24.5745 9.91344 24.6229 9.91047 24.6538 9.93808C24.7954 10.0631 24.8732 10.2249 24.8732 10.3941C24.8732 10.563 24.7954 10.7248 24.6541 10.8501C24.6395 10.8629 24.6214 10.8691 24.6036 10.8691Z" fill="#FD9997"/>
<path d="M17.0766 11.4476C17.5756 11.4476 17.98 10.976 17.98 10.3941C17.98 9.81226 17.5756 9.34058 17.0766 9.34058C16.5777 9.34058 16.1732 9.81226 16.1732 10.3941C16.1732 10.976 16.5777 11.4476 17.0766 11.4476Z" fill="#F9C4C0"/>
<path d="M16.7845 10.8691C16.8056 10.8691 16.8264 10.8605 16.8415 10.8436C16.8691 10.8121 16.8664 10.764 16.835 10.7361C16.7266 10.6402 16.6669 10.5188 16.6669 10.3941C16.6669 10.2691 16.7266 10.1477 16.8347 10.0521C16.8661 10.0242 16.8691 9.97638 16.8415 9.94491C16.8136 9.91344 16.7652 9.91047 16.7343 9.93808C16.5927 10.0631 16.5149 10.2249 16.5149 10.3941C16.5149 10.563 16.5927 10.7248 16.734 10.8501C16.7486 10.8629 16.7667 10.8691 16.7845 10.8691Z" fill="#FD9997"/>
<path d="M24.3637 8.6665V10.6063C24.3637 12.6683 22.6912 14.337 20.633 14.337C18.571 14.337 16.9023 12.6683 16.9023 10.6063V8.6665C16.9023 6.60444 18.571 4.93579 20.633 4.93579C21.664 4.93579 22.5957 5.35195 23.2716 6.02784C23.9475 6.70373 24.3637 7.63543 24.3637 8.6665Z" fill="#F9C4C0"/>
<path d="M19.401 10.225C19.401 10.506 19.2468 10.7321 19.055 10.7321C18.8631 10.7321 18.7056 10.506 18.7056 10.225C18.7056 9.94413 18.8631 9.7146 19.055 9.7146C19.2468 9.7146 19.401 9.94413 19.401 10.225Z" fill="#373754"/>
<path d="M22.5597 10.225C22.5597 10.506 22.4056 10.7321 22.2137 10.7321C22.0219 10.7321 21.8643 10.506 21.8643 10.225C21.8643 9.94413 22.0219 9.7146 22.2137 9.7146C22.4056 9.7146 22.5597 9.94413 22.5597 10.225Z" fill="#373754"/>
<path d="M24.4176 9.91838L24.3658 9.9637C24.3658 9.9637 23.9131 10.0155 23.9131 9.9637C23.9131 9.91199 23.7968 9.10359 23.7968 9.10359C23.7968 9.10359 22.9884 9.10645 23.5704 8.07179C23.5704 8.07179 21.1205 9.42891 17.9063 8.16135C18.1969 8.33106 17.7342 9.72359 17.2519 10.2935L16.9027 10.2935L16.6181 9.48513C16.6181 9.48513 15.2407 6.95003 16.7927 5.65659C16.7927 5.65659 16.243 3.58703 18.5583 2.84975L18.9399 4.07207C18.9399 4.07207 19.8517 2.63636 21.669 2.55876C23.4928 2.47468 23.0983 4.13025 23.0983 4.13025C23.0983 4.13025 24.2559 3.58703 24.7021 4.19499C25.1419 4.80287 24.4176 5.4237 24.4176 5.4237C24.4176 5.4237 24.9997 5.84408 25.2195 6.82064C25.4459 7.79719 24.4176 9.91838 24.4176 9.91838Z" fill="#363383"/>
<path d="M21.6605 12.0875C21.6605 12.6532 21.1989 13.1148 20.6332 13.1148C20.0675 13.1148 19.606 12.6532 19.606 12.0875C19.606 12.0694 19.6105 12.0558 19.6105 12.0422H21.656C21.656 12.0558 21.6605 12.0694 21.6605 12.0875Z" fill="white"/>
<path d="M25.3181 15.4141L26.7385 15.4126H26.7385C28.3813 15.4134 29.6945 16.7791 29.6309 18.4206L29.8885 22.7603C29.8531 23.6747 29.4126 24.5259 28.6866 25.0829L24.049 28.6102L20.9435 26.4226L25.9646 21.1829" fill="#78D7A6"/>
<path d="M21.0204 26.4962L20.8667 26.3491L25.8565 21.1418L25.2782 17.1538L25.4909 17.1455L26.0726 21.2241L21.0204 26.4962Z" fill="#5DB19C"/>
<path d="M16.2418 28.6085L17.2392 30.2459C17.6509 30.9218 18.4689 31.2319 19.2252 30.9988L19.4911 30.9169C20.4703 30.6151 20.9738 29.5329 20.5739 28.5895L20.2195 27.7534L20.9375 27.9849C21.1232 28.0448 21.3246 27.9581 21.4087 27.782V27.782C21.5031 27.5844 21.4162 27.3478 21.2163 27.2584L19.3474 26.4219L16.2418 28.6085Z" fill="#FD9997"/>
<path d="M24.0494 28.6085L23.052 30.2459C22.6403 30.9218 21.8223 31.2319 21.066 30.9988L20.8001 30.9169C19.8209 30.6151 19.3174 29.5329 19.7173 28.5895L20.0717 27.7534L19.3537 27.9849C19.168 28.0448 18.9666 27.9581 18.8825 27.782V27.782C18.7881 27.5844 18.875 27.3478 19.0749 27.2584L20.9438 26.4219L24.0494 28.6085Z" fill="#F9C4C0"/>
<path d="M14.9731 15.4141L13.5528 15.4126H13.5528C11.9099 15.4134 10.5968 16.7791 10.6603 18.4206L10.4027 22.7603C10.4381 23.6747 10.8786 24.5259 11.6046 25.0829L16.2422 28.6102L19.3477 26.4226L14.3266 21.1829" fill="#78D7A6"/>
<path d="M19.2708 26.4962L19.4246 26.3491L14.4347 21.1418L15.013 17.1538L14.8003 17.1455L14.2187 21.2241L19.2708 26.4962Z" fill="#5DB19C"/>
</svg>
