<svg width="20" height="21" viewBox="0 0 20 21" fill="none" xmlns="http://www.w3.org/2000/svg">
<path d="M9.99999 0C15.523 0 20 4.477 20 10C20 15.523 15.523 20 9.99999 20C8.38222 20.0021 6.78828 19.6102 5.35599 18.858L1.06599 19.975C0.92265 20.0123 0.772038 20.0116 0.629084 19.9728C0.486131 19.934 0.355801 19.8585 0.251009 19.7538C0.146217 19.6491 0.0706031 19.5188 0.0316604 19.3759C-0.00728222 19.233 -0.00820133 19.0824 0.0289942 18.939L1.14499 14.65C0.390794 13.2162 -0.00223491 11.6201 -5.82972e-06 10C-5.82972e-06 4.477 4.47699 0 9.99999 0ZM11.252 11H6.74999L6.64799 11.007C6.46848 11.0317 6.30398 11.1206 6.18491 11.2571C6.06583 11.3937 6.00022 11.5688 6.00022 11.75C6.00022 11.9312 6.06583 12.1063 6.18491 12.2429C6.30398 12.3794 6.46848 12.4683 6.64799 12.493L6.74999 12.5H11.252L11.353 12.493C11.5325 12.4683 11.697 12.3794 11.8161 12.2429C11.9352 12.1063 12.0008 11.9312 12.0008 11.75C12.0008 11.5688 11.9352 11.3937 11.8161 11.2571C11.697 11.1206 11.5325 11.0317 11.353 11.007L11.252 11ZM13.25 7.5H6.74999L6.64799 7.507C6.46848 7.5317 6.30398 7.62055 6.18491 7.75714C6.06583 7.89372 6.00022 8.0688 6.00022 8.25C6.00022 8.4312 6.06583 8.60628 6.18491 8.74286C6.30398 8.87945 6.46848 8.9683 6.64799 8.993L6.74999 9H13.25L13.352 8.993C13.5315 8.9683 13.696 8.87945 13.8151 8.74286C13.9342 8.60628 13.9998 8.4312 13.9998 8.25C13.9998 8.0688 13.9342 7.89372 13.8151 7.75714C13.696 7.62055 13.5315 7.5317 13.352 7.507L13.25 7.5Z" fill="#313034"/>
</svg>
