<svg width="24" height="24" viewBox="0 0 24 24" fill="none" xmlns="http://www.w3.org/2000/svg">
<g filter="url(#filter0_bii_39_399)">
<path fill-rule="evenodd" clip-rule="evenodd" d="M8.71937 3.07369C7.53228 3.39299 7.15826 4.09353 7.15826 5.99766V7.15594H6.00013C4.08215 7.15594 3.38784 7.53218 3.07269 8.74238C2.97577 9.11446 2.97577 19.0328 3.07269 19.4049C3.26796 20.1546 3.84227 20.7308 4.5879 20.9251C4.97139 21.025 14.8785 21.025 15.262 20.9251C16.4647 20.6118 16.8417 19.9134 16.8417 17.999V16.8407H17.9999C19.9178 16.8407 20.6122 16.4644 20.9273 15.2542C21.0242 14.8822 21.0242 4.96386 20.9273 4.59178C20.732 3.84203 20.1577 3.26579 19.4121 3.07153C19.0407 2.97481 9.07961 2.9768 8.71937 3.07369ZM19.2892 4.49964C19.6161 4.74379 19.5868 4.20979 19.5868 9.92301C19.5868 16.3576 20.5088 15.4355 14.075 15.4355C7.64399 15.4355 8.56651 16.3368 8.55078 10.0388C8.53634 4.26012 8.50902 4.64253 8.95013 4.4494C9.2058 4.33746 19.1367 4.38572 19.2892 4.49964ZM7.15826 11.7731C7.15826 15.6272 7.15039 15.5683 7.7486 16.1955C8.36631 16.8432 8.34881 16.8407 12.2272 16.8407H15.4624L15.4496 18.005C15.4355 19.2878 15.4385 19.2735 15.1391 19.497C14.9507 19.6377 4.89928 19.6377 4.7108 19.497C4.38454 19.2534 4.41467 19.7691 4.40071 14.1894C4.38485 7.84204 4.18046 8.54402 6.04509 8.54116L7.15826 8.53948V11.7731Z" fill="#47464A"/>
</g>
<defs>
<filter id="filter0_bii_39_399" x="-12" y="-12" width="48" height="48" filterUnits="userSpaceOnUse" color-interpolation-filters="sRGB">
<feFlood flood-opacity="0" result="BackgroundImageFix"/>
<feGaussianBlur in="BackgroundImageFix" stdDeviation="6"/>
<feComposite in2="SourceAlpha" operator="in" result="effect1_backgroundBlur_39_399"/>
<feBlend mode="normal" in="SourceGraphic" in2="effect1_backgroundBlur_39_399" result="shape"/>
<feColorMatrix in="SourceAlpha" type="matrix" values="0 0 0 0 0 0 0 0 0 0 0 0 0 0 0 0 0 0 127 0" result="hardAlpha"/>
<feOffset dx="-1.24988" dy="1.24988"/>
<feGaussianBlur stdDeviation="0.624942"/>
<feComposite in2="hardAlpha" operator="arithmetic" k2="-1" k3="1"/>
<feColorMatrix type="matrix" values="0 0 0 0 1 0 0 0 0 1 0 0 0 0 1 0 0 0 0.1 0"/>
<feBlend mode="normal" in2="shape" result="effect2_innerShadow_39_399"/>
<feColorMatrix in="SourceAlpha" type="matrix" values="0 0 0 0 0 0 0 0 0 0 0 0 0 0 0 0 0 0 127 0" result="hardAlpha"/>
<feOffset dx="1.24988" dy="-1.24988"/>
<feGaussianBlur stdDeviation="0.624942"/>
<feComposite in2="hardAlpha" operator="arithmetic" k2="-1" k3="1"/>
<feColorMatrix type="matrix" values="0 0 0 0 0.76 0 0 0 0 0.76 0 0 0 0 0.76 0 0 0 0.096 0"/>
<feBlend mode="normal" in2="effect2_innerShadow_39_399" result="effect3_innerShadow_39_399"/>
</filter>
</defs>
</svg>
