<svg width="47" height="46" viewBox="0 0 47 46" fill="none" xmlns="http://www.w3.org/2000/svg">
<path d="M37.5156 29.1094V42.7656H8.76562V29.1094C8.76562 25.1419 11.9856 21.9219 15.9531 21.9219H30.3281C34.2956 21.9219 37.5156 25.1419 37.5156 29.1094Z" fill="#00A0C8"/>
<path d="M21.7031 37.0156C21.7031 37.4109 21.3797 37.7344 20.9844 37.7344C20.5891 37.7344 20.2656 37.4109 20.2656 37.0156C20.2656 36.7497 20.4166 36.5341 20.625 36.4047V33.4219C20.625 32.0347 19.4966 30.9062 18.1094 30.9062C16.7222 30.9062 15.5938 32.0347 15.5938 33.4219V36.4047C15.8022 36.5341 15.9531 36.7497 15.9531 37.0156C15.9531 37.4109 15.6297 37.7344 15.2344 37.7344C14.8391 37.7344 14.5156 37.4109 14.5156 37.0156C14.5156 36.7497 14.6666 36.5341 14.875 36.4047V33.4219C14.875 31.7616 16.14 30.4031 17.75 30.2234V21.9219H18.4688V30.2234C20.0788 30.4031 21.3438 31.7616 21.3438 33.4219V36.4047C21.5522 36.5341 21.7031 36.7497 21.7031 37.0156Z" fill="#0082AA"/>
<path d="M29.6094 36.2969C29.6094 37.0875 28.9625 37.7344 28.1719 37.7344C27.3812 37.7344 26.7344 37.0875 26.7344 36.2969C26.7344 35.6284 27.1944 35.0678 27.8125 34.9097V21.9219H28.5312V34.9097C29.1494 35.0678 29.6094 35.6284 29.6094 36.2969Z" fill="#0082AA"/>
<path d="M13.0781 29.1094V32.7031H12.3594V29.8281C12.3594 29.4328 12.6828 29.1094 13.0781 29.1094Z" fill="#0082AA"/>
<path d="M26.7344 17.6094V21.9219L23.7257 26.1345C23.4389 26.5355 22.8423 26.5355 22.5563 26.1345L19.5469 21.9219V17.6094H26.7344Z" fill="#F0C8A0"/>
<path d="M26.7344 17.6094V20.1106C24.5637 21.5675 21.7189 21.569 19.5469 20.1106V17.6094H26.7344Z" fill="#D2AA82"/>
<path d="M23.1406 20.4844C19.5677 20.4844 16.6719 17.5885 16.6719 14.0156V6.10938H29.6094V14.0156C29.6094 17.5885 26.7135 20.4844 23.1406 20.4844Z" fill="#F0C8A0"/>
<path d="M16.6719 14.0156H17.3906V9.70312H16.6719C15.4809 9.70312 14.5156 10.6684 14.5156 11.8594C14.5156 13.0503 15.4809 14.0156 16.6719 14.0156Z" fill="#F0C8A0"/>
<path d="M29.6094 9.70312H28.8906V14.0156H29.6094C30.8003 14.0156 31.7656 13.0503 31.7656 11.8594C31.7656 10.6684 30.8003 9.70312 29.6094 9.70312Z" fill="#F0C8A0"/>
<path d="M23.1406 11.8594C22.9422 11.8594 22.7812 12.0204 22.7812 12.2188V14.0156C22.7812 14.214 22.9422 14.375 23.1406 14.375C23.339 14.375 23.5 14.214 23.5 14.0156V12.2188C23.5 12.0204 23.339 11.8594 23.1406 11.8594Z" fill="#0A5078"/>
<path d="M23.1406 17.6094C21.3574 17.6094 19.9062 16.1582 19.9062 14.375C19.9062 14.1766 20.0672 14.0156 20.2656 14.0156C20.464 14.0156 20.625 14.1766 20.625 14.375C20.625 15.7622 21.7534 16.8906 23.1406 16.8906C24.5278 16.8906 25.6562 15.7622 25.6562 14.375C25.6562 14.1766 25.8172 14.0156 26.0156 14.0156C26.214 14.0156 26.375 14.1766 26.375 14.375C26.375 16.1582 24.9238 17.6094 23.1406 17.6094Z" fill="#0A5078"/>
<path d="M20.2656 12.5781C20.6626 12.5781 20.9844 12.2563 20.9844 11.8594C20.9844 11.4624 20.6626 11.1406 20.2656 11.1406C19.8687 11.1406 19.5469 11.4624 19.5469 11.8594C19.5469 12.2563 19.8687 12.5781 20.2656 12.5781Z" fill="#0A5078"/>
<path d="M26.0156 12.5781C26.4126 12.5781 26.7344 12.2563 26.7344 11.8594C26.7344 11.4624 26.4126 11.1406 26.0156 11.1406C25.6187 11.1406 25.2969 11.4624 25.2969 11.8594C25.2969 12.2563 25.6187 12.5781 26.0156 12.5781Z" fill="#0A5078"/>
<path d="M19.5886 2.53081C17.9067 2.69109 16.6719 4.19975 16.6719 5.88881V14.0157C17.4625 14.0157 18.1094 13.3688 18.1094 12.5782V8.98447C18.1094 8.58772 18.4314 8.26572 18.8281 8.26572H23.1406V5.75009C23.1406 3.85906 21.5177 2.34681 19.5886 2.53081Z" fill="#0A5078"/>
<path d="M26.0573 2.53081C24.3754 2.69109 23.1406 4.19975 23.1406 5.88881V8.26572H27.4531C27.8499 8.26572 28.1719 8.58772 28.1719 8.98447V12.5782C28.1719 13.3688 28.8187 14.0157 29.6094 14.0157C29.6094 11.1457 29.6094 8.62006 29.6094 5.75009C29.6094 3.85906 27.9864 2.34681 26.0573 2.53081Z" fill="#0A5078"/>
<path d="M13.0781 32.7031H8.76562V42.7656H13.0781V32.7031Z" fill="#F0C8A0"/>
<path d="M13.0781 32.7031H12.3594V42.7656H13.0781V32.7031Z" fill="#D2AA82"/>
<path d="M37.5156 32.7031H33.2031V42.7656H37.5156V32.7031Z" fill="#F0C8A0"/>
<path d="M33.2031 29.1094V32.7031H33.9219V29.8281C33.9219 29.4328 33.5984 29.1094 33.2031 29.1094Z" fill="#0082AA"/>
<path d="M33.9219 32.7031H33.2031V42.7656H33.9219V32.7031Z" fill="#D2AA82"/>
<path d="M36.7969 16.1719H35.3594C34.9619 16.1719 34.6406 15.8499 34.6406 15.4531C34.6406 15.0564 34.9619 14.7344 35.3594 14.7344H36.7969C37.1943 14.7344 37.5156 15.0564 37.5156 15.4531C37.5156 15.8499 37.1943 16.1719 36.7969 16.1719Z" fill="#C80A50"/>
<path d="M34.43 19.5549L33.4137 18.5379C33.1327 18.2568 33.1327 17.8019 33.4137 17.5216C33.6947 17.2405 34.149 17.2405 34.43 17.5216L35.4463 18.5386C35.7274 18.8196 35.7274 19.2746 35.4463 19.5549C35.1653 19.8359 34.7111 19.8359 34.43 19.5549Z" fill="#00A0C8"/>
<path d="M33.4137 13.3838C33.1327 13.1027 33.1327 12.6485 33.4137 12.3675L34.43 11.3512C34.7111 11.0701 35.1653 11.0701 35.4463 11.3512C35.7274 11.6322 35.7274 12.0864 35.4463 12.3675L34.43 13.3838C34.149 13.6648 33.6947 13.6648 33.4137 13.3838Z" fill="#FAB400"/>
<path d="M9.48438 14.7344H10.9219C11.3193 14.7344 11.6406 15.0564 11.6406 15.4531C11.6406 15.8499 11.3193 16.1719 10.9219 16.1719H9.48438C9.08691 16.1719 8.76562 15.8499 8.76562 15.4531C8.76562 15.0564 9.08691 14.7344 9.48438 14.7344Z" fill="#C80A50"/>
<path d="M11.8512 11.3512L12.8675 12.3682C13.1486 12.6492 13.1486 13.1042 12.8675 13.3845C12.5865 13.6655 12.1323 13.6655 11.8512 13.3845L10.8349 12.3675C10.5539 12.0864 10.5539 11.6315 10.8349 11.3512C11.1152 11.0701 11.5702 11.0701 11.8512 11.3512Z" fill="#00A0C8"/>
<path d="M12.8675 17.5223C13.1486 17.8033 13.1486 18.2576 12.8675 18.5386L11.8512 19.5549C11.5702 19.836 11.1152 19.836 10.8349 19.5549C10.5539 19.2739 10.5539 18.8196 10.8349 18.5386L11.8512 17.5223C12.1323 17.2413 12.5865 17.2413 12.8675 17.5223Z" fill="#FAB400"/>
<path d="M21.3438 36.2969H20.625V32.7031C20.625 31.3159 19.4966 30.1875 18.1094 30.1875C16.7222 30.1875 15.5938 31.3159 15.5938 32.7031V36.2969H14.875V32.7031C14.875 30.9199 16.3262 29.4688 18.1094 29.4688C19.8926 29.4688 21.3438 30.9199 21.3438 32.7031V36.2969Z" fill="#0A5078"/>
<path d="M15.2344 37.0156C15.6313 37.0156 15.9531 36.6938 15.9531 36.2969C15.9531 35.8999 15.6313 35.5781 15.2344 35.5781C14.8374 35.5781 14.5156 35.8999 14.5156 36.2969C14.5156 36.6938 14.8374 37.0156 15.2344 37.0156Z" fill="#F0F0F0"/>
<path d="M20.9844 37.0156C21.3813 37.0156 21.7031 36.6938 21.7031 36.2969C21.7031 35.8999 21.3813 35.5781 20.9844 35.5781C20.5874 35.5781 20.2656 35.8999 20.2656 36.2969C20.2656 36.6938 20.5874 37.0156 20.9844 37.0156Z" fill="#F0F0F0"/>
<path d="M18.1094 21.5625C17.911 21.5625 17.75 21.7235 17.75 21.9219V29.8281C17.75 30.0265 17.911 30.1875 18.1094 30.1875C18.3077 30.1875 18.4688 30.0265 18.4688 29.8281V21.9219C18.4688 21.7235 18.3077 21.5625 18.1094 21.5625Z" fill="#0A5078"/>
<path d="M28.1719 21.5625C27.9735 21.5625 27.8125 21.7235 27.8125 21.9219V35.5781C27.8125 35.7765 27.9735 35.9375 28.1719 35.9375C28.3702 35.9375 28.5312 35.7765 28.5312 35.5781V21.9219C28.5312 21.7235 28.3702 21.5625 28.1719 21.5625Z" fill="#0A5078"/>
<path d="M28.1719 37.0156C28.9658 37.0156 29.6094 36.372 29.6094 35.5781C29.6094 34.7842 28.9658 34.1406 28.1719 34.1406C27.378 34.1406 26.7344 34.7842 26.7344 35.5781C26.7344 36.372 27.378 37.0156 28.1719 37.0156Z" fill="white"/>
<path d="M21.3438 35.5782H20.625C20.625 34.7969 20.3562 34.145 19.848 33.6936C19.3931 33.2897 18.7757 33.0669 18.1108 33.0669C16.8983 33.0676 15.5938 33.8532 15.5938 35.5782H14.875C14.875 34.5863 15.2279 33.749 15.8949 33.1567C16.4828 32.6356 17.2699 32.3481 18.1108 32.3481C19.7172 32.3489 21.3438 33.4579 21.3438 35.5782Z" fill="#0A5078"/>
</svg>
