<svg width="24" height="24" viewBox="0 0 24 24" fill="none" xmlns="http://www.w3.org/2000/svg">
<g filter="url(#filter0_bii_40_403)">
<path d="M12.5 9.25C12.5 9.05109 12.579 8.86032 12.7197 8.71967C12.8603 8.57902 13.0511 8.5 13.25 8.5H16.75C16.9489 8.5 17.1397 8.57902 17.2803 8.71967C17.421 8.86032 17.5 9.05109 17.5 9.25C17.5 9.44891 17.421 9.63968 17.2803 9.78033C17.1397 9.92098 16.9489 10 16.75 10H13.25C13.0511 10 12.8603 9.92098 12.7197 9.78033C12.579 9.63968 12.5 9.44891 12.5 9.25V9.25ZM13.25 14C13.0511 14 12.8603 14.079 12.7197 14.2197C12.579 14.3603 12.5 14.5511 12.5 14.75C12.5 14.9489 12.579 15.1397 12.7197 15.2803C12.8603 15.421 13.0511 15.5 13.25 15.5H16.75C16.9489 15.5 17.1397 15.421 17.2803 15.2803C17.421 15.1397 17.5 14.9489 17.5 14.75C17.5 14.5511 17.421 14.3603 17.2803 14.2197C17.1397 14.079 16.9489 14 16.75 14H13.25ZM10.78 8.78C10.8537 8.71134 10.9128 8.62854 10.9538 8.53654C10.9948 8.44454 11.0168 8.34522 11.0186 8.24452C11.0204 8.14382 11.0018 8.04379 10.9641 7.9504C10.9264 7.85701 10.8703 7.77218 10.799 7.70096C10.7278 7.62974 10.643 7.5736 10.5496 7.53588C10.4562 7.49816 10.3562 7.47963 10.2555 7.48141C10.1548 7.48319 10.0555 7.50523 9.96346 7.54622C9.87146 7.58721 9.78866 7.64631 9.72 7.72L8.25 9.19L7.78 8.72C7.63783 8.58752 7.44978 8.5154 7.25548 8.51882C7.06118 8.52225 6.87579 8.60097 6.73838 8.73838C6.60097 8.87579 6.52225 9.06118 6.51883 9.25548C6.5154 9.44978 6.58752 9.63782 6.72 9.78L7.72 10.78C7.86063 10.9205 8.05125 10.9993 8.25 10.9993C8.44875 10.9993 8.63937 10.9205 8.78 10.78L10.78 8.78V8.78ZM10.78 13.22C10.9205 13.3606 10.9993 13.5512 10.9993 13.75C10.9993 13.9488 10.9205 14.1394 10.78 14.28L8.78 16.28C8.63937 16.4205 8.44875 16.4993 8.25 16.4993C8.05125 16.4993 7.86063 16.4205 7.72 16.28L6.72 15.28C6.64631 15.2113 6.58721 15.1285 6.54622 15.0365C6.50523 14.9445 6.48319 14.8452 6.48141 14.7445C6.47963 14.6438 6.49816 14.5438 6.53588 14.4504C6.5736 14.357 6.62974 14.2722 6.70096 14.201C6.77218 14.1297 6.85701 14.0736 6.9504 14.0359C7.04379 13.9982 7.14382 13.9796 7.24452 13.9814C7.34523 13.9832 7.44454 14.0052 7.53654 14.0462C7.62854 14.0872 7.71134 14.1463 7.78 14.22L8.25 14.69L9.72 13.22C9.86063 13.0795 10.0512 13.0007 10.25 13.0007C10.4488 13.0007 10.6394 13.0795 10.78 13.22V13.22ZM6.25 3C5.38805 3 4.5614 3.34241 3.9519 3.9519C3.34241 4.5614 3 5.38805 3 6.25V17.75C3 18.612 3.34241 19.4386 3.9519 20.0481C4.5614 20.6576 5.38805 21 6.25 21H17.75C18.612 21 19.4386 20.6576 20.0481 20.0481C20.6576 19.4386 21 18.612 21 17.75V6.25C21 5.38805 20.6576 4.5614 20.0481 3.9519C19.4386 3.34241 18.612 3 17.75 3H6.25ZM4.5 6.25C4.5 5.284 5.284 4.5 6.25 4.5H17.75C18.716 4.5 19.5 5.284 19.5 6.25V17.75C19.5 18.2141 19.3156 18.6592 18.9874 18.9874C18.6592 19.3156 18.2141 19.5 17.75 19.5H6.25C5.78587 19.5 5.34075 19.3156 5.01256 18.9874C4.68437 18.6592 4.5 18.2141 4.5 17.75V6.25Z" fill="#47464A"/>
</g>
<defs>
<filter id="filter0_bii_40_403" x="-12" y="-12" width="48" height="48" filterUnits="userSpaceOnUse" color-interpolation-filters="sRGB">
<feFlood flood-opacity="0" result="BackgroundImageFix"/>
<feGaussianBlur in="BackgroundImageFix" stdDeviation="6"/>
<feComposite in2="SourceAlpha" operator="in" result="effect1_backgroundBlur_40_403"/>
<feBlend mode="normal" in="SourceGraphic" in2="effect1_backgroundBlur_40_403" result="shape"/>
<feColorMatrix in="SourceAlpha" type="matrix" values="0 0 0 0 0 0 0 0 0 0 0 0 0 0 0 0 0 0 127 0" result="hardAlpha"/>
<feOffset dx="-1.24988" dy="1.24988"/>
<feGaussianBlur stdDeviation="0.624942"/>
<feComposite in2="hardAlpha" operator="arithmetic" k2="-1" k3="1"/>
<feColorMatrix type="matrix" values="0 0 0 0 1 0 0 0 0 1 0 0 0 0 1 0 0 0 0.1 0"/>
<feBlend mode="normal" in2="shape" result="effect2_innerShadow_40_403"/>
<feColorMatrix in="SourceAlpha" type="matrix" values="0 0 0 0 0 0 0 0 0 0 0 0 0 0 0 0 0 0 127 0" result="hardAlpha"/>
<feOffset dx="1.24988" dy="-1.24988"/>
<feGaussianBlur stdDeviation="0.624942"/>
<feComposite in2="hardAlpha" operator="arithmetic" k2="-1" k3="1"/>
<feColorMatrix type="matrix" values="0 0 0 0 0.76 0 0 0 0 0.76 0 0 0 0 0.76 0 0 0 0.096 0"/>
<feBlend mode="normal" in2="effect2_innerShadow_40_403" result="effect3_innerShadow_40_403"/>
</filter>
</defs>
</svg>
