<svg width="24" height="24" viewBox="0 0 24 24" fill="none" xmlns="http://www.w3.org/2000/svg">
<g filter="url(#filter0_bii_39_385)">
<rect width="24" height="24" rx="8" fill="#FFDAD6"/>
<path d="M3 6.25C3 5.38805 3.34241 4.5614 3.9519 3.9519C4.5614 3.34241 5.38805 3 6.25 3H17.75C18.612 3 19.4386 3.34241 20.0481 3.9519C20.6576 4.5614 21 5.38805 21 6.25V17.75C21 18.612 20.6576 19.4386 20.0481 20.0481C19.4386 20.6576 18.612 21 17.75 21H6.25C5.38805 21 4.5614 20.6576 3.9519 20.0481C3.34241 19.4386 3 18.612 3 17.75V6.25ZM12.5 9.25C12.5 9.664 12.836 10 13.25 10H16.75C16.9489 10 17.1397 9.92098 17.2803 9.78033C17.421 9.63968 17.5 9.44891 17.5 9.25C17.5 9.05109 17.421 8.86032 17.2803 8.71967C17.1397 8.57902 16.9489 8.5 16.75 8.5H13.25C13.0511 8.5 12.8603 8.57902 12.7197 8.71967C12.579 8.86032 12.5 9.05109 12.5 9.25ZM13.25 14C13.0511 14 12.8603 14.079 12.7197 14.2197C12.579 14.3603 12.5 14.5511 12.5 14.75C12.5 14.9489 12.579 15.1397 12.7197 15.2803C12.8603 15.421 13.0511 15.5 13.25 15.5H16.75C16.9489 15.5 17.1397 15.421 17.2803 15.2803C17.421 15.1397 17.5 14.9489 17.5 14.75C17.5 14.5511 17.421 14.3603 17.2803 14.2197C17.1397 14.079 16.9489 14 16.75 14H13.25ZM10.78 8.78C10.8537 8.71134 10.9128 8.62854 10.9538 8.53654C10.9948 8.44454 11.0168 8.34522 11.0186 8.24452C11.0204 8.14382 11.0018 8.04379 10.9641 7.9504C10.9264 7.85701 10.8703 7.77218 10.799 7.70096C10.7278 7.62974 10.643 7.5736 10.5496 7.53588C10.4562 7.49816 10.3562 7.47963 10.2555 7.48141C10.1548 7.48319 10.0555 7.50523 9.96346 7.54622C9.87146 7.58721 9.78866 7.64631 9.72 7.72L8.25 9.19L7.78 8.72C7.63783 8.58752 7.44978 8.5154 7.25548 8.51882C7.06118 8.52225 6.87579 8.60097 6.73838 8.73838C6.60097 8.87579 6.52225 9.06118 6.51883 9.25548C6.5154 9.44978 6.58752 9.63783 6.72 9.78L7.72 10.78C7.86063 10.9205 8.05125 10.9993 8.25 10.9993C8.44875 10.9993 8.63937 10.9205 8.78 10.78L10.78 8.78ZM10.78 13.22C10.6394 13.0795 10.4488 13.0007 10.25 13.0007C10.0512 13.0007 9.86063 13.0795 9.72 13.22L8.25 14.69L7.78 14.22C7.63783 14.0875 7.44978 14.0154 7.25548 14.0188C7.06118 14.0223 6.87579 14.101 6.73838 14.2384C6.60097 14.3758 6.52225 14.5612 6.51883 14.7555C6.5154 14.9498 6.58752 15.1378 6.72 15.28L7.72 16.28C7.86063 16.4205 8.05125 16.4993 8.25 16.4993C8.44875 16.4993 8.63937 16.4205 8.78 16.28L10.78 14.28C10.9205 14.1394 10.9993 13.9488 10.9993 13.75C10.9993 13.5512 10.9205 13.3606 10.78 13.22Z" fill="#DE3730"/>
</g>
<defs>
<filter id="filter0_bii_39_385" x="-12" y="-12" width="48" height="48" filterUnits="userSpaceOnUse" color-interpolation-filters="sRGB">
<feFlood flood-opacity="0" result="BackgroundImageFix"/>
<feGaussianBlur in="BackgroundImageFix" stdDeviation="6"/>
<feComposite in2="SourceAlpha" operator="in" result="effect1_backgroundBlur_39_385"/>
<feBlend mode="normal" in="SourceGraphic" in2="effect1_backgroundBlur_39_385" result="shape"/>
<feColorMatrix in="SourceAlpha" type="matrix" values="0 0 0 0 0 0 0 0 0 0 0 0 0 0 0 0 0 0 127 0" result="hardAlpha"/>
<feOffset dx="-1.24988" dy="1.24988"/>
<feGaussianBlur stdDeviation="0.624942"/>
<feComposite in2="hardAlpha" operator="arithmetic" k2="-1" k3="1"/>
<feColorMatrix type="matrix" values="0 0 0 0 1 0 0 0 0 1 0 0 0 0 1 0 0 0 0.1 0"/>
<feBlend mode="normal" in2="shape" result="effect2_innerShadow_39_385"/>
<feColorMatrix in="SourceAlpha" type="matrix" values="0 0 0 0 0 0 0 0 0 0 0 0 0 0 0 0 0 0 127 0" result="hardAlpha"/>
<feOffset dx="1.24988" dy="-1.24988"/>
<feGaussianBlur stdDeviation="0.624942"/>
<feComposite in2="hardAlpha" operator="arithmetic" k2="-1" k3="1"/>
<feColorMatrix type="matrix" values="0 0 0 0 0.76 0 0 0 0 0.76 0 0 0 0 0.76 0 0 0 0.096 0"/>
<feBlend mode="normal" in2="effect2_innerShadow_39_385" result="effect3_innerShadow_39_385"/>
</filter>
</defs>
</svg>
