<svg width="46" height="46" viewBox="0 0 46 46" fill="none" xmlns="http://www.w3.org/2000/svg">
<g filter="url(#filter0_bii_268_3147)">
<path d="M22.0436 27.3125C22.0436 26.4229 21.6902 25.5698 21.0612 24.9407C20.4321 24.3117 19.579 23.9583 18.6894 23.9583H14.8561C13.9665 23.9583 13.1134 24.3117 12.4843 24.9407C11.8553 25.5698 11.5019 26.4229 11.5019 27.3125V31.1458C11.5019 32.9973 13.0046 34.5 14.8561 34.5H18.6894C19.579 34.5 20.4321 34.1466 21.0612 33.5176C21.6902 32.8886 22.0436 32.0354 22.0436 31.1458V27.3125ZM34.4981 27.3125C34.4981 26.4229 34.1447 25.5698 33.5157 24.9407C32.8866 24.3117 32.0335 23.9583 31.1439 23.9583H27.3106C26.421 23.9583 25.5679 24.3117 24.9388 24.9407C24.3098 25.5698 23.9564 26.4229 23.9564 27.3125V31.1458C23.9564 32.9973 25.4572 34.5 27.3106 34.5H31.1439C32.0335 34.5 32.8866 34.1466 33.5157 33.5176C34.1447 32.8886 34.4981 32.0354 34.4981 31.1458V27.3125ZM22.0417 14.8542C22.0417 13.9646 21.6883 13.1114 21.0593 12.4824C20.4302 11.8534 19.5771 11.5 18.6875 11.5H14.8542C13.9646 11.5 13.1114 11.8534 12.4824 12.4824C11.8534 13.1114 11.5 13.9646 11.5 14.8542V18.6875C11.5 20.539 13.0027 22.0417 14.8542 22.0417H18.6875C19.5771 22.0417 20.4302 21.6883 21.0593 21.0593C21.6883 20.4302 22.0417 19.5771 22.0417 18.6875V14.8542ZM34.4942 14.8542C34.4942 13.9646 34.1409 13.1114 33.5118 12.4824C32.8828 11.8534 32.0297 11.5 31.1401 11.5H27.3067C26.4172 11.5 25.564 11.8534 24.935 12.4824C24.306 13.1114 23.9526 13.9646 23.9526 14.8542V18.6875C23.9526 20.539 25.4552 22.0417 27.3067 22.0417H31.1401C32.0297 22.0417 32.8828 21.6883 33.5118 21.0593C34.1409 20.4302 34.4942 19.5771 34.4942 18.6875V14.8542ZM11.9792 5.75C10.3271 5.75 8.74268 6.40629 7.57448 7.57448C6.40629 8.74268 5.75 10.3271 5.75 11.9792V34.0208C5.75 35.6729 6.40629 37.2573 7.57448 38.4255C8.74268 39.5937 10.3271 40.25 11.9792 40.25H34.0208C35.6729 40.25 37.2573 39.5937 38.4255 38.4255C39.5937 37.2573 40.25 35.6729 40.25 34.0208V11.9792C40.25 10.3271 39.5937 8.74268 38.4255 7.57448C37.2573 6.40629 35.6729 5.75 34.0208 5.75H11.9792ZM8.625 11.9792C8.625 10.1277 10.1277 8.625 11.9792 8.625H34.0208C35.8723 8.625 37.375 10.1277 37.375 11.9792V34.0208C37.375 34.9104 37.0216 35.7636 36.3926 36.3926C35.7636 37.0216 34.9104 37.375 34.0208 37.375H11.9792C11.0896 37.375 10.2364 37.0216 9.60741 36.3926C8.97838 35.7636 8.625 34.9104 8.625 34.0208V11.9792Z" fill="#1B1B1F"/>
</g>
<defs>
<filter id="filter0_bii_268_3147" x="-12" y="-12" width="70" height="70" filterUnits="userSpaceOnUse" color-interpolation-filters="sRGB">
<feFlood flood-opacity="0" result="BackgroundImageFix"/>
<feGaussianBlur in="BackgroundImageFix" stdDeviation="6"/>
<feComposite in2="SourceAlpha" operator="in" result="effect1_backgroundBlur_268_3147"/>
<feBlend mode="normal" in="SourceGraphic" in2="effect1_backgroundBlur_268_3147" result="shape"/>
<feColorMatrix in="SourceAlpha" type="matrix" values="0 0 0 0 0 0 0 0 0 0 0 0 0 0 0 0 0 0 127 0" result="hardAlpha"/>
<feOffset dx="-1.24988" dy="1.24988"/>
<feGaussianBlur stdDeviation="0.624942"/>
<feComposite in2="hardAlpha" operator="arithmetic" k2="-1" k3="1"/>
<feColorMatrix type="matrix" values="0 0 0 0 1 0 0 0 0 1 0 0 0 0 1 0 0 0 0.1 0"/>
<feBlend mode="normal" in2="shape" result="effect2_innerShadow_268_3147"/>
<feColorMatrix in="SourceAlpha" type="matrix" values="0 0 0 0 0 0 0 0 0 0 0 0 0 0 0 0 0 0 127 0" result="hardAlpha"/>
<feOffset dx="1.24988" dy="-1.24988"/>
<feGaussianBlur stdDeviation="0.624942"/>
<feComposite in2="hardAlpha" operator="arithmetic" k2="-1" k3="1"/>
<feColorMatrix type="matrix" values="0 0 0 0 0.76 0 0 0 0 0.76 0 0 0 0 0.76 0 0 0 0.096 0"/>
<feBlend mode="normal" in2="effect2_innerShadow_268_3147" result="effect3_innerShadow_268_3147"/>
</filter>
</defs>
</svg>
