<svg width="24" height="24" viewBox="0 0 24 24" fill="none" xmlns="http://www.w3.org/2000/svg">
<g filter="url(#filter0_bii_40_406)">
<path d="M17.7539 14C18.0494 14 18.3419 14.0582 18.6148 14.1713C18.8877 14.2844 19.1357 14.4501 19.3446 14.6591C19.5534 14.868 19.7191 15.1161 19.832 15.389C19.945 15.662 20.0031 15.9546 20.0029 16.25V16.825C20.0029 17.719 19.6829 18.584 19.1019 19.263C17.5319 21.096 15.1449 22.001 11.9999 22.001C8.85393 22.001 6.46793 21.096 4.90193 19.261C4.32218 18.5825 4.00342 17.7195 4.00293 16.827V16.249C4.00293 15.9536 4.06114 15.661 4.17422 15.3881C4.28731 15.1152 4.45306 14.8672 4.662 14.6584C4.87095 14.4495 5.11899 14.2839 5.39197 14.1709C5.66494 14.0579 5.9575 13.9999 6.25293 14H17.7539V14ZM17.7539 15.5H6.25193C6.15349 15.5 6.05601 15.5194 5.96507 15.5571C5.87413 15.5948 5.79152 15.6501 5.72195 15.7197C5.65239 15.7894 5.59724 15.8721 5.55966 15.9631C5.52208 16.0541 5.5028 16.1516 5.50293 16.25V16.827C5.50293 17.362 5.69493 17.88 6.04293 18.287C7.29593 19.756 9.26193 20.501 11.9999 20.501C14.7379 20.501 16.7059 19.756 17.9619 18.288C18.3106 17.8803 18.5021 17.3615 18.5019 16.825V16.249C18.5019 16.0505 18.4232 15.8602 18.2829 15.7197C18.1427 15.5793 17.9524 15.5003 17.7539 15.5V15.5ZM11.9999 2.005C12.6565 2.005 13.3067 2.13433 13.9133 2.38561C14.52 2.63688 15.0712 3.00518 15.5355 3.46947C15.9998 3.93376 16.3681 4.48496 16.6193 5.09159C16.8706 5.69822 16.9999 6.3484 16.9999 7.005C16.9999 7.66161 16.8706 8.31179 16.6193 8.91842C16.3681 9.52505 15.9998 10.0762 15.5355 10.5405C15.0712 11.0048 14.52 11.3731 13.9133 11.6244C13.3067 11.8757 12.6565 12.005 11.9999 12.005C10.6738 12.005 9.40208 11.4782 8.4644 10.5405C7.52671 9.60286 6.99993 8.33109 6.99993 7.005C6.99993 5.67892 7.52671 4.40715 8.4644 3.46947C9.40208 2.53179 10.6738 2.005 11.9999 2.005ZM11.9999 3.505C11.5403 3.505 11.0852 3.59553 10.6605 3.77143C10.2359 3.94732 9.85006 4.20513 9.52506 4.53013C9.20005 4.85514 8.94224 5.24097 8.76635 5.66561C8.59046 6.09025 8.49993 6.54538 8.49993 7.005C8.49993 7.46463 8.59046 7.91976 8.76635 8.3444C8.94224 8.76904 9.20005 9.15487 9.52506 9.47988C9.85006 9.80488 10.2359 10.0627 10.6605 10.2386C11.0852 10.4145 11.5403 10.505 11.9999 10.505C12.9282 10.505 13.8184 10.1363 14.4748 9.47988C15.1312 8.8235 15.4999 7.93326 15.4999 7.005C15.4999 6.07675 15.1312 5.18651 14.4748 4.53013C13.8184 3.87375 12.9282 3.505 11.9999 3.505V3.505Z" fill="#47464A"/>
</g>
<defs>
<filter id="filter0_bii_40_406" x="-12" y="-12" width="48" height="48" filterUnits="userSpaceOnUse" color-interpolation-filters="sRGB">
<feFlood flood-opacity="0" result="BackgroundImageFix"/>
<feGaussianBlur in="BackgroundImageFix" stdDeviation="6"/>
<feComposite in2="SourceAlpha" operator="in" result="effect1_backgroundBlur_40_406"/>
<feBlend mode="normal" in="SourceGraphic" in2="effect1_backgroundBlur_40_406" result="shape"/>
<feColorMatrix in="SourceAlpha" type="matrix" values="0 0 0 0 0 0 0 0 0 0 0 0 0 0 0 0 0 0 127 0" result="hardAlpha"/>
<feOffset dx="-1.24988" dy="1.24988"/>
<feGaussianBlur stdDeviation="0.624942"/>
<feComposite in2="hardAlpha" operator="arithmetic" k2="-1" k3="1"/>
<feColorMatrix type="matrix" values="0 0 0 0 1 0 0 0 0 1 0 0 0 0 1 0 0 0 0.1 0"/>
<feBlend mode="normal" in2="shape" result="effect2_innerShadow_40_406"/>
<feColorMatrix in="SourceAlpha" type="matrix" values="0 0 0 0 0 0 0 0 0 0 0 0 0 0 0 0 0 0 127 0" result="hardAlpha"/>
<feOffset dx="1.24988" dy="-1.24988"/>
<feGaussianBlur stdDeviation="0.624942"/>
<feComposite in2="hardAlpha" operator="arithmetic" k2="-1" k3="1"/>
<feColorMatrix type="matrix" values="0 0 0 0 0.76 0 0 0 0 0.76 0 0 0 0 0.76 0 0 0 0.096 0"/>
<feBlend mode="normal" in2="effect2_innerShadow_40_406" result="effect3_innerShadow_40_406"/>
</filter>
</defs>
</svg>
