<svg width="46" height="46" viewBox="0 0 46 46" fill="none" xmlns="http://www.w3.org/2000/svg">
<path d="M37.0156 26.9531V35.5781C37.0156 36.3687 36.3687 37.0156 35.5781 37.0156H9.70312C8.9125 37.0156 8.26562 36.3687 8.26562 35.5781V26.9531C8.26562 22.9713 11.5072 19.7656 15.4531 19.7656H29.8281C33.8172 19.7656 37.0156 23.0144 37.0156 26.9531Z" fill="#C80A50"/>
<path d="M37.0156 31.2656V35.8656C37.0156 36.4981 36.3687 37.0156 35.5781 37.0156H9.70312C8.9125 37.0156 8.26562 36.4981 8.26562 35.8656V31.2656H37.0156Z" fill="#F0C8A0"/>
<path d="M35.995 23.2659C35.0606 23.1006 34.2125 22.7053 33.4937 22.1446L32.4947 23.1509C32.2144 23.4312 31.7544 23.4312 31.4741 23.1509C31.1937 22.8706 31.1937 22.4106 31.4741 22.1303L32.4803 21.1312C32.2216 20.8006 31.9916 20.434 31.8191 20.0459C33.5872 20.5562 35.075 21.7206 35.995 23.2659Z" fill="#A00028"/>
<path d="M13.8072 23.1509C13.5269 23.4312 13.0669 23.4312 12.7866 23.1509L11.7875 22.1446C11.0688 22.7053 10.2206 23.1006 9.28625 23.2659C10.2063 21.7206 11.6941 20.5562 13.4622 20.0459C13.2897 20.434 13.0597 20.8006 12.8009 21.1312L13.8072 22.1303C14.0875 22.4106 14.0875 22.8706 13.8072 23.1509Z" fill="#A00028"/>
<path d="M26.2344 17.6094V19.7656C26.2344 21.7091 24.674 23.3594 22.6406 23.3594C20.6569 23.3594 19.0469 21.7659 19.0469 19.7656V17.6094H26.2344Z" fill="#F0C8A0"/>
<path d="M42.0469 39.8906H3.23438C2.83762 39.8906 2.51562 39.5686 2.51562 39.1719V37.7344C2.51562 37.3376 2.83762 37.0156 3.23438 37.0156H42.0469C42.4436 37.0156 42.7656 37.3376 42.7656 37.7344V39.1719C42.7656 39.5686 42.4436 39.8906 42.0469 39.8906Z" fill="#0A5078"/>
<path d="M42.0469 39.8906H3.23438V42.7656H42.0469V39.8906Z" fill="#FAB400"/>
<path d="M16.1719 14.0156H16.8906V9.70312H16.1719C14.9809 9.70312 14.0156 10.6684 14.0156 11.8594C14.0156 13.0503 14.9809 14.0156 16.1719 14.0156Z" fill="#F0C8A0"/>
<path d="M29.1094 9.70312H28.3906V14.0156H29.1094C30.3003 14.0156 31.2656 13.0503 31.2656 11.8594C31.2656 10.6684 30.3003 9.70312 29.1094 9.70312Z" fill="#F0C8A0"/>
<path d="M26.2344 17.6094V20.1106C25.2066 20.8006 23.9703 21.2031 22.6406 21.2031C21.3109 21.2031 20.0747 20.8006 19.0469 20.1106V17.6094H26.2344Z" fill="#D2AA82"/>
<path d="M22.6406 20.4844C19.0677 20.4844 16.1719 17.5885 16.1719 14.0156V8.26562H29.1094V14.0156C29.1094 17.5885 26.2135 20.4844 22.6406 20.4844Z" fill="#F0C8A0"/>
<path d="M22.6406 12.5781C22.4422 12.5781 22.2812 12.7391 22.2812 12.9375V14.7344C22.2812 14.9327 22.4422 15.0938 22.6406 15.0938C22.839 15.0938 23 14.9327 23 14.7344V12.9375C23 12.7391 22.839 12.5781 22.6406 12.5781Z" fill="#0A5078"/>
<path d="M16.1719 5.03125V14.0156C16.9625 14.0156 17.6094 13.3687 17.6094 12.5781V8.98438C17.6094 8.58763 17.9314 8.26562 18.3281 8.26562H21.2031V5.03125C21.2031 3.64191 20.0768 2.51562 18.6875 2.51562C17.2982 2.51562 16.1719 3.64191 16.1719 5.03125Z" fill="#0A5078"/>
<path d="M29.1094 5.03125V14.0156C28.3187 14.0156 27.6719 13.3687 27.6719 12.5781V8.98438C27.6719 8.58763 27.3499 8.26562 26.9531 8.26562H21.2031V5.03125C21.2031 3.64191 22.3294 2.51562 23.7188 2.51562H26.5938C27.9831 2.51562 29.1094 3.64191 29.1094 5.03125Z" fill="#0A5078"/>
<path d="M22.6406 17.4297C20.8574 17.4297 19.4062 15.9785 19.4062 14.1953C19.4062 13.9969 19.5672 13.8359 19.7656 13.8359C19.964 13.8359 20.125 13.9969 20.125 14.1953C20.125 15.5825 21.2534 16.7109 22.6406 16.7109C24.0278 16.7109 25.1562 15.5825 25.1562 14.1953C25.1562 13.9969 25.3172 13.8359 25.5156 13.8359C25.714 13.8359 25.875 13.9969 25.875 14.1953C25.875 15.9785 24.4238 17.4297 22.6406 17.4297Z" fill="#0A5078"/>
<path d="M15.4531 33.4219H11.1406C11.1406 33.0251 11.4626 32.7031 11.8594 32.7031H15.4531V33.4219Z" fill="#D2AA82"/>
<path d="M29.8281 33.4219H34.1406C34.1406 33.0251 33.8186 32.7031 33.4219 32.7031H29.8281V33.4219Z" fill="#D2AA82"/>
<path d="M31.9844 35.5781H13.2969C12.9001 35.5781 12.5781 35.2561 12.5781 34.8594V24.7969C12.5781 24.4001 12.9001 24.0781 13.2969 24.0781H31.9844C32.3811 24.0781 32.7031 24.4001 32.7031 24.7969V34.8594C32.7031 35.2561 32.3811 35.5781 31.9844 35.5781Z" fill="#0A5078"/>
<path d="M24.7969 29.8281C24.7969 31.0213 23.8338 31.9844 22.6406 31.9844C21.4475 31.9844 20.4844 31.0213 20.4844 29.8281C20.4844 28.635 21.4475 27.6719 22.6406 27.6719C22.6406 28.6961 23.6929 29.3926 24.6316 29.0016C24.7394 29.2531 24.7969 29.5334 24.7969 29.8281Z" fill="#F0F0F0"/>
<path d="M37.0156 11.1406C33.8402 11.1406 31.2656 13.7152 31.2656 16.8906C31.2656 18.2189 31.7206 19.4386 32.4774 20.4125L31.4762 21.4137C31.1952 21.694 31.1952 22.1497 31.4762 22.43C31.7565 22.7111 32.2122 22.7111 32.4925 22.43L33.4937 21.4288C34.4677 22.1857 35.6874 22.6406 37.0156 22.6406C40.1911 22.6406 42.7656 20.0661 42.7656 16.8906C42.7656 13.7152 40.1911 11.1406 37.0156 11.1406Z" fill="#FAB400"/>
<path d="M34.1413 19.4062C33.93 19.4062 33.7216 19.3142 33.5793 19.1367L32.1418 17.3398C31.9319 17.0774 31.9319 16.7037 32.1418 16.4413L33.5793 14.6445C33.8287 14.3354 34.2793 14.2837 34.5898 14.5323C34.8996 14.781 34.9499 15.2331 34.702 15.5429L33.6231 16.8906L34.702 18.2382C34.9499 18.5487 34.8989 19.0001 34.5898 19.2488C34.4569 19.3552 34.2987 19.4062 34.1413 19.4062Z" fill="#C80A50"/>
<path d="M39.8899 19.4062C39.7325 19.4062 39.5744 19.3552 39.4414 19.2488C39.1316 19.0001 39.0813 18.548 39.3293 18.2382L40.4081 16.8906L39.3293 15.5429C39.0813 15.2324 39.1316 14.781 39.4414 14.5323C39.7526 14.2837 40.2033 14.3354 40.452 14.6445L41.8895 16.4413C42.0993 16.7037 42.0993 17.0774 41.8895 17.3398L40.452 19.1367C40.3096 19.3135 40.1012 19.4062 39.8899 19.4062Z" fill="#C80A50"/>
<path d="M36.2969 19.4062C36.2078 19.4062 36.1172 19.3904 36.0302 19.3552C35.6615 19.2078 35.4818 18.7895 35.6292 18.4208L37.0667 14.8271C37.214 14.4569 37.6359 14.2779 38.001 14.426C38.3698 14.5733 38.5494 14.9917 38.4021 15.3604L36.9646 18.9541C36.8518 19.2359 36.5815 19.4062 36.2969 19.4062Z" fill="#0A5078"/>
<path d="M12.8038 20.4125C13.5607 19.4386 14.0156 18.2189 14.0156 16.8906C14.0156 13.7152 11.4411 11.1406 8.26563 11.1406C5.09019 11.1406 2.51562 13.7152 2.51562 16.8906C2.51562 20.0661 5.09019 22.6406 8.26563 22.6406C9.59388 22.6406 10.8136 22.1857 11.7875 21.4288L12.7887 22.43C13.0698 22.7111 13.5247 22.7111 13.805 22.43C14.0861 22.1497 14.0861 21.694 13.805 21.4137L12.8038 20.4125Z" fill="#00A0C8"/>
<path d="M31.9844 37.0156H13.2969C12.9001 37.0156 12.5781 36.6936 12.5781 36.2969C12.5781 35.9001 12.9001 35.5781 13.2969 35.5781H31.9844C32.3811 35.5781 32.7031 35.9001 32.7031 36.2969C32.7031 36.6936 32.3811 37.0156 31.9844 37.0156Z" fill="#00A0C8"/>
<path d="M19.7656 12.5781C20.1626 12.5781 20.4844 12.2563 20.4844 11.8594C20.4844 11.4624 20.1626 11.1406 19.7656 11.1406C19.3687 11.1406 19.0469 11.4624 19.0469 11.8594C19.0469 12.2563 19.3687 12.5781 19.7656 12.5781Z" fill="#0A5078"/>
<path d="M25.5156 12.5781C25.9126 12.5781 26.2344 12.2563 26.2344 11.8594C26.2344 11.4624 25.9126 11.1406 25.5156 11.1406C25.1187 11.1406 24.7969 11.4624 24.7969 11.8594C24.7969 12.2563 25.1187 12.5781 25.5156 12.5781Z" fill="#0A5078"/>
<path d="M5.39063 19.4061C5.18003 19.4061 4.97088 19.3141 4.82928 19.1365L3.39178 17.3397C3.18191 17.0773 3.18191 16.7036 3.39178 16.4412L4.82928 14.6444C5.07725 14.3353 5.53006 14.285 5.83912 14.5322C6.14962 14.7809 6.19994 15.233 5.95125 15.5428L4.87313 16.8904L5.95125 18.2381C6.19922 18.5486 6.14891 19 5.83912 19.2487C5.70687 19.355 5.54875 19.4061 5.39063 19.4061Z" fill="#F0F0F0"/>
<path d="M11.1399 19.4061C10.9825 19.4061 10.8237 19.3551 10.6914 19.2487C10.3809 19 10.3313 18.5479 10.5793 18.2381L11.6574 16.8905L10.5793 15.5428C10.3313 15.2323 10.3816 14.781 10.6914 14.5323C11.0005 14.2843 11.454 14.3346 11.7012 14.6444L13.1387 16.4413C13.3486 16.7036 13.3486 17.0774 13.1387 17.3397L11.7012 19.1366C11.5597 19.3134 11.3505 19.4061 11.1399 19.4061Z" fill="#F0F0F0"/>
<path d="M7.54617 19.4062C7.45776 19.4062 7.3672 19.3904 7.27951 19.3551C6.91079 19.2078 6.73183 18.7895 6.87917 18.4208L8.31667 14.827C8.46401 14.4576 8.88017 14.2772 9.25104 14.426C9.61976 14.5733 9.79873 14.9916 9.65139 15.3603L8.21389 18.9541C8.10176 19.2358 7.83151 19.4062 7.54617 19.4062Z" fill="#C80A50"/>
</svg>
